<?xml version="1.0" standalone="no"?>
<!DOCTYPE svg PUBLIC "-//W3C//DTD SVG 20010904//EN"
 "http://www.w3.org/TR/2001/REC-SVG-20010904/DTD/svg10.dtd">
<svg version="1.0" xmlns="http://www.w3.org/2000/svg"
 width="1920.000000pt" height="1920.000000pt" viewBox="0 0 1920.000000 1920.000000"
 preserveAspectRatio="xMidYMid meet">
<metadata>
Created by potrace 1.14, written by Peter Selinger 2001-2017
</metadata>
<g transform="translate(0.000000,1920.000000) scale(0.100000,-0.100000)"
fill="#000000" stroke="none">
<path d="M9459 18156 c-2 -2 -60 -6 -129 -10 -69 -3 -136 -8 -150 -10 -14 -3
-54 -8 -90 -10 -36 -3 -74 -8 -86 -10 -12 -2 -45 -7 -74 -11 -29 -4 -62 -9
-74 -11 -12 -2 -62 -11 -112 -19 -376 -61 -835 -209 -1204 -388 -471 -228
-957 -602 -1299 -997 -111 -129 -113 -130 -166 -200 -28 -36 -54 -70 -60 -76
-5 -6 -17 -22 -25 -34 -8 -13 -24 -35 -36 -49 -36 -46 -159 -233 -221 -336
-248 -412 -449 -876 -589 -1360 -35 -123 -109 -416 -118 -470 -3 -16 -11 -64
-20 -105 -8 -41 -17 -100 -21 -130 -4 -30 -9 -58 -10 -61 -2 -3 -7 -37 -10
-75 -4 -38 -8 -71 -10 -74 -14 -23 -19 -377 -19 -1373 -1 -1020 -3 -1158 -16
-1161 -14 -4 -45 -11 -98 -21 -12 -2 -80 -18 -150 -35 -494 -120 -800 -274
-880 -443 l-22 -47 0 -4395 0 -4394 32 -37 c129 -146 472 -288 978 -404 19 -4
96 -20 170 -35 74 -15 144 -29 155 -31 18 -4 364 -60 425 -69 43 -6 113 -15
155 -20 22 -3 58 -8 80 -10 61 -9 101 -13 210 -25 55 -6 120 -13 145 -16 45
-5 64 -7 195 -19 39 -3 88 -8 110 -10 22 -3 74 -7 115 -10 41 -3 98 -7 125
-10 52 -5 118 -10 295 -20 58 -4 130 -8 160 -10 50 -4 127 -8 365 -20 44 -2
152 -7 240 -10 88 -3 212 -8 275 -10 700 -27 2465 -27 3185 0 404 15 705 29
870 40 33 3 107 7 165 11 210 13 327 21 400 29 25 2 79 7 120 10 41 3 94 7
118 10 23 2 68 7 100 10 112 11 158 15 242 25 47 5 105 12 130 14 25 3 61 7
80 10 46 7 173 24 230 31 25 3 74 11 110 16 36 6 79 13 95 16 38 6 290 50 328
58 15 3 37 7 50 9 67 13 265 58 352 81 395 105 677 232 788 354 l37 41 -2
4393 -3 4392 -24 49 c-82 166 -363 313 -821 431 -72 19 -65 17 -170 40 -41 8
-82 18 -90 20 -13 4 -15 144 -16 1172 0 643 -3 1206 -7 1253 -9 103 -15 165
-22 205 -10 66 -17 111 -20 130 -5 40 -32 184 -61 323 -41 200 -145 550 -237
798 -43 113 -52 138 -82 209 -7 17 -25 58 -39 93 -72 172 -248 510 -356 682
-249 398 -558 769 -860 1030 -41 36 -77 67 -80 70 -30 33 -356 271 -446 327
-45 28 -172 103 -209 124 -53 29 -312 159 -319 159 -3 0 -36 14 -73 31 -152
70 -523 193 -673 224 -8 2 -42 10 -75 19 -33 8 -73 17 -90 20 -16 3 -41 8 -55
11 -28 7 -226 41 -282 49 -80 12 -105 15 -163 21 -33 3 -85 8 -115 11 -30 3
-75 8 -100 10 -62 6 -447 14 -451 10z m316 -1709 c11 -3 47 -8 80 -12 93 -10
268 -43 405 -76 115 -27 357 -98 405 -119 11 -5 63 -25 115 -45 266 -103 539
-255 759 -423 115 -88 145 -115 286 -256 260 -261 467 -592 589 -941 64 -184
104 -340 141 -560 3 -16 7 -41 10 -55 2 -14 7 -52 10 -85 3 -33 9 -73 12 -90
3 -16 8 -563 10 -1214 l4 -1183 -98 6 c-54 4 -123 8 -153 11 -30 2 -107 7
-170 10 -63 3 -153 8 -200 10 -235 13 -333 17 -700 30 -826 28 -2633 28 -3385
0 -60 -2 -186 -7 -280 -10 -93 -3 -201 -8 -240 -10 -446 -22 -547 -28 -708
-41 l-58 -4 4 1167 c3 643 6 1175 7 1183 1 8 6 49 11 90 5 41 11 98 15 125 33
278 132 617 257 875 137 281 272 475 482 686 179 180 309 284 515 414 109 69
381 207 490 249 47 18 99 39 115 46 150 65 572 173 785 201 19 3 45 7 58 9 13
2 53 7 90 11 37 3 69 8 71 10 4 4 241 -4 266 -9z"/>
</g>
</svg>
